<svg width="17" height="25" viewBox="0 0 17 25" fill="none" xmlns="http://www.w3.org/2000/svg">
<path d="M8.5 25C8.5 25 0 13.97 0 9C0 6.61305 0.895541 4.32381 2.4896 2.63599C4.08366 0.948159 6.24566 0 8.5 0C10.7543 0 12.9163 0.948159 14.5104 2.63599C16.1045 4.32381 17 6.61305 17 9C17 13.97 8.5 25 8.5 25ZM8.5 2C6.73099 2.01664 5.04065 2.77661 3.80084 4.11279C2.56102 5.44898 1.87329 7.25193 1.88889 9.125C1.88889 13.06 8.5 22 8.5 22C8.5 22 15.1111 13.06 15.1111 9.125C15.1267 7.25193 14.439 5.44898 13.1992 4.11279C11.9594 2.77661 10.269 2.01664 8.5 2ZM4.72222 9C4.72222 8.20887 4.9438 7.43563 5.3589 6.77783C5.77401 6.12004 6.36398 5.60719 7.05428 5.30444C7.74458 5.00169 8.50417 4.92256 9.23698 5.0769C9.9698 5.23125 10.643 5.61222 11.1713 6.17163C11.6996 6.73104 12.0594 7.4438 12.2052 8.21973C12.351 8.99565 12.2761 9.79986 11.9902 10.5308C11.7043 11.2617 11.2201 11.8864 10.5988 12.3259C9.97758 12.7655 9.24717 13 8.5 13C7.49807 13 6.53718 12.5785 5.8287 11.8284C5.12023 11.0782 4.72222 10.0609 4.72222 9ZM10.3889 9C10.3889 8.60444 10.2781 8.21781 10.0706 7.88892C9.86302 7.56002 9.56801 7.30372 9.22286 7.15234C8.87771 7.00097 8.49789 6.96116 8.13148 7.03833C7.76507 7.1155 7.42855 7.30599 7.16438 7.58569C6.90022 7.8654 6.72031 8.2219 6.64743 8.60986C6.57454 8.99783 6.61191 9.39993 6.75488 9.76538C6.89784 10.1308 7.13996 10.4431 7.45058 10.6628C7.76121 10.8826 8.12641 11 8.5 11C9.00096 11 9.48138 10.7894 9.83562 10.4143C10.1899 10.0392 10.3889 9.53043 10.3889 9Z" fill="#FC3E69"/>
</svg>
