<svg width="21" height="21" viewBox="0 0 21 21" fill="none" xmlns="http://www.w3.org/2000/svg">
<path d="M20.2201 16.4359L17.0632 13.2449C16.9226 13.1026 16.7378 13.0121 16.5391 12.9884C16.3404 12.9647 16.1396 13.0091 15.9694 13.1144L13.3628 14.7218C10.4374 12.5855 7.84896 10.0223 5.68397 7.11802L7.29654 4.51061C7.40105 4.34197 7.44561 4.143 7.423 3.9459C7.4004 3.74879 7.31195 3.56508 7.17197 3.42448L4.02448 0.260782C3.85903 0.0947291 3.63455 0.00096681 3.40014 7.43487e-06C3.16573 -0.000951941 2.94049 0.0909698 2.77368 0.255662L1.34285 1.66516C0.684614 2.33051 0.242731 3.17919 0.0751066 4.09998C-0.0925183 5.02078 0.0219346 5.97074 0.403467 6.82537L0.535714 7.11375C3.14486 12.9163 7.82103 17.5396 13.6529 20.0825C14.2398 20.3404 14.8736 20.4746 15.5146 20.4767C16.7376 20.4753 17.9099 19.9882 18.7739 19.1227L20.2167 17.6816C20.382 17.5167 20.4752 17.293 20.4758 17.0595C20.4764 16.826 20.3845 16.6017 20.2201 16.4359ZM17.5222 17.8719C17.1171 18.279 16.5982 18.554 16.0338 18.6606C15.4694 18.7672 14.886 18.7004 14.3602 18.4691C8.92953 16.0989 4.5758 11.7917 2.14742 6.38682L2.01859 6.09758C1.78315 5.57132 1.712 4.98627 1.81445 4.41892C1.9169 3.85157 2.18817 3.32835 2.5928 2.91767L3.38884 2.13272L5.41692 4.1753L3.85469 6.7025C3.76049 6.8533 3.71399 7.02902 3.7213 7.20668C3.72861 7.38434 3.78937 7.55565 3.89565 7.6982L4.21134 8.11798C6.49982 11.2003 9.24316 13.9172 12.3475 16.1757L12.763 16.4939C12.9053 16.6033 13.0775 16.6668 13.2567 16.6759C13.436 16.6851 13.6137 16.6395 13.7664 16.5451L16.2919 14.988L18.3396 17.0536L17.5222 17.8719Z" fill="#FF416C"/>
</svg>
