<svg width="20" height="20" viewBox="0 0 20 20" fill="none" xmlns="http://www.w3.org/2000/svg">
<path d="M11.1719 20C13.1104 20 14.6875 18.4229 14.6875 16.4844V4.6875C14.6875 2.10281 12.5847 0 10 0C7.41531 0 5.3125 2.10281 5.3125 4.6875V16.4844H6.48438V4.6875C6.48438 2.74898 8.06148 1.17188 10 1.17188C11.9385 1.17188 13.5156 2.74898 13.5156 4.6875V16.4844C13.5156 17.7767 12.4642 18.8281 11.1719 18.8281C9.87953 18.8281 8.82812 17.7767 8.82812 16.4844V7.03125C8.82812 6.38508 9.35383 5.85938 10 5.85938C10.6462 5.85938 11.1719 6.38508 11.1719 7.03125V16.4844H12.3438V7.03125C12.3438 5.73891 11.2923 4.6875 10 4.6875C8.70766 4.6875 7.65625 5.73891 7.65625 7.03125V16.4844C7.65625 18.4229 9.23336 20 11.1719 20Z" fill="black"/>
</svg>
