<svg width="42" height="42" viewBox="0 0 42 42" fill="none" xmlns="http://www.w3.org/2000/svg">
<path d="M30.0234 32.4844C29.5706 32.4844 29.2031 32.8519 29.2031 33.3047C29.2031 33.7575 29.5706 34.125 30.0234 34.125C30.4763 34.125 30.8438 33.7575 30.8438 33.3047C30.8438 32.8519 30.4763 32.4844 30.0234 32.4844Z" fill="#837E7E"/>
<path d="M32.0432 29.8317L28.1443 28.5324L26.7446 25.7329C28.0056 24.4494 28.8811 22.7512 29.1763 20.9799L29.3509 19.9336H30.8438C32.2007 19.9336 33.3047 18.8296 33.3047 17.4727V12.3047C33.3047 5.51988 27.7848 0 21 0C14.1978 0 8.69531 5.50405 8.69531 12.3047V17.4727C8.69531 18.542 9.38118 19.4539 10.3359 19.7925V20.7539C10.3359 22.1109 11.4399 23.2148 12.7969 23.2148H13.5173C13.8729 23.9873 14.3332 24.7028 14.8933 25.3455C15.0094 25.4791 15.1306 25.6085 15.2547 25.7344L13.8557 28.5324L9.95671 29.8318C5.42325 31.3435 2.13281 36.116 2.13281 41.1797C2.13281 41.6327 2.50007 42 2.95312 42H39.0469C39.4999 42 39.8672 41.6327 39.8672 41.1797C39.8672 36.116 36.5768 31.3435 32.0432 29.8317ZM31.6641 17.4727C31.6641 17.925 31.2961 18.293 30.8438 18.293H29.5918C29.8003 16.6778 29.9393 14.959 29.9951 13.2661C29.9968 13.2184 29.9981 13.1719 29.9996 13.125H31.6641V17.4727ZM11.1562 18.293C10.7039 18.293 10.3359 17.925 10.3359 17.4727V13.125H12.001C12.0037 13.2106 12.0066 13.2965 12.0098 13.3831C12.0099 13.386 12.01 13.3889 12.0101 13.3918C12.0101 13.3921 12.0101 13.3923 12.0101 13.3926C12.0675 15.0391 12.2047 16.7133 12.4085 18.2929H11.1562V18.293ZM12.7969 21.5742C12.3446 21.5742 11.9766 21.2062 11.9766 20.7539V19.9336H12.6491L12.8236 20.9802C12.8569 21.1792 12.8979 21.3773 12.9452 21.5742H12.7969ZM11.978 11.4844H10.3671C10.7826 5.98656 15.3708 1.64062 21 1.64062C26.6042 1.64062 31.2126 5.98598 31.6328 11.4844H30.0221C29.9631 6.95404 26.2739 3.28125 21.7343 3.28125H20.2659C15.7264 3.28125 12.0369 6.95404 11.978 11.4844ZM20.2658 4.92188H21.7342C25.4099 4.92188 28.3849 7.9284 28.3828 11.6C28.3828 11.8582 28.3808 12.083 28.3764 12.2875C28.3764 12.2901 28.3763 12.2928 28.3763 12.2955L27.3503 12.1489C24.5629 11.7509 21.931 10.4349 19.9394 8.44339C19.7855 8.28959 19.5769 8.20312 19.3594 8.20312C17.1563 8.20312 15.0475 9.20686 13.6534 10.9026C13.997 7.56238 16.8208 4.92188 20.2658 4.92188ZM14.6459 21.5742C14.2352 20.2082 13.7653 16.1886 13.6615 13.6128L14.7655 12.1407C15.7795 10.7892 17.3571 9.94941 19.0352 9.85302C21.2432 11.9543 24.0997 13.342 27.1183 13.773L28.326 13.9456C28.2452 15.6588 28.0803 17.378 27.8439 18.9591C27.8439 18.9596 27.8438 18.9602 27.8437 18.9608C27.7686 19.4691 27.7093 19.7963 27.5581 20.71C27.1236 23.3157 25.1793 25.6721 22.6127 26.3138C21.5563 26.5776 20.4435 26.5775 19.3878 26.3138C17.7851 25.9132 16.3156 24.8043 15.3672 23.2148H17.0395C17.3782 24.1696 18.2899 24.8555 19.3594 24.8555H21C22.3597 24.8555 23.4609 23.7543 23.4609 22.3945C23.4609 21.0376 22.357 19.9336 21 19.9336H19.3594C18.2661 19.9336 17.3678 20.6397 17.0381 21.5742H14.6459ZM19.2904 27.974C19.853 28.0925 20.4267 28.1531 21 28.1531C21.4488 28.1531 21.8977 28.1156 22.3415 28.0427L20.892 29.5756L19.2904 27.974ZM19.7642 30.7682L17.1623 33.5197C16.446 32.1486 15.8306 30.7217 15.3257 29.2609L16.3028 27.3067L19.7642 30.7682ZM25.5581 27.0288L26.6741 29.2608C26.1685 30.7241 25.5528 32.1515 24.8373 33.5209L22.0525 30.7361L25.5581 27.0288ZM18.5391 22.3945C18.5391 21.9416 18.9064 21.5742 19.3594 21.5742H21C21.4523 21.5742 21.8203 21.9422 21.8203 22.3945C21.8203 22.8475 21.4529 23.2148 21 23.2148H19.3594C18.9071 23.2148 18.5391 22.8469 18.5391 22.3945ZM3.80625 40.3594C4.13134 36.2956 6.83583 32.6019 10.4756 31.3882L13.9286 30.2375C14.5612 31.9868 15.3449 33.687 16.2634 35.3021C16.265 35.3049 16.2665 35.3076 16.268 35.3104C16.268 35.3104 16.2681 35.3104 16.2681 35.3105C16.9392 36.4909 17.6946 37.6443 18.5135 38.7393L19.5226 40.3594H3.80625ZM21 39.6281L19.8875 37.8421C19.875 37.8221 19.8617 37.8026 19.8476 37.7838C19.1833 36.8977 18.5637 35.971 17.9993 35.0224L20.9248 31.9287L24.0073 35.0113C23.4392 35.9667 22.8174 36.8972 22.1525 37.7836C22.1123 37.8372 22.1694 37.7528 21 39.6281ZM22.4774 40.3594L23.4865 38.7394C24.309 37.6402 25.0697 36.4775 25.7476 35.2833C25.7517 35.2761 25.7555 35.2687 25.7596 35.2615C25.7601 35.2606 25.7606 35.2597 25.7611 35.2588C26.6679 33.6592 27.4435 31.9737 28.0714 30.2375L31.5244 31.3882C35.1642 32.6019 37.8687 36.2956 38.1938 40.3594H22.4774Z" fill="#837E7E"/>
<path d="M35.7287 37.0363C35.1805 35.939 34.3775 34.9641 33.4065 34.2171C33.0473 33.9408 32.5323 34.008 32.2561 34.3671C31.9799 34.7262 32.047 35.2412 32.4061 35.5175C33.1816 36.1141 33.8229 36.8928 34.2609 37.7695C34.4638 38.1755 34.9568 38.3389 35.3614 38.1367C35.7666 37.9343 35.9311 37.4416 35.7287 37.0363Z" fill="#837E7E"/>
</svg>
