<svg width="23" height="20" viewBox="0 0 23 20" fill="none" xmlns="http://www.w3.org/2000/svg">
<g clip-path="url(#clip0_1_4339)">
<path d="M22.0315 0.171647C21.8474 0.00586635 21.5711 -0.0451101 21.3294 0.041921L0.409267 7.57308C0.169901 7.65925 0.00961449 7.86441 0.000413122 8.09632C-0.00874485 8.3282 0.135005 8.54308 0.366949 8.64433L8.61641 12.2451L12.6174 19.6697C12.7265 19.8722 12.9543 19.9999 13.203 19.9999C13.2107 19.9999 13.2185 19.9998 13.2263 19.9995C13.4839 19.9913 13.7119 19.847 13.8076 19.6316L22.1756 0.803599C22.2723 0.585944 22.2157 0.337389 22.0315 0.171647ZM2.261 8.16863L18.868 2.19016L8.97093 11.0975L2.261 8.16863ZM13.1459 17.9651L9.89163 11.926L19.7887 3.01875L13.1459 17.9651Z" fill="#195CE1"/>
</g>
<defs>
<clipPath id="clip0_1_4339">
<rect width="22.2222" height="20" fill="white"/>
</clipPath>
</defs>
</svg>
