<svg width="20" height="20" viewBox="0 0 20 20" fill="none" xmlns="http://www.w3.org/2000/svg">
<g clip-path="url(#clip0_1_4330)">
<path d="M14.2032 12.2867C14.0241 12.1262 13.7489 12.1419 13.5893 12.3206C12.6824 13.3341 11.3745 13.9149 10.0002 13.9149C8.62627 13.9149 7.318 13.3341 6.41104 12.3206C6.25061 12.1419 5.97626 12.1262 5.79713 12.2867C5.618 12.4467 5.60322 12.7215 5.76322 12.9006C6.83496 14.098 8.37931 14.7845 10.0002 14.7845C11.6215 14.7845 13.1658 14.0975 14.2372 12.9006C14.3972 12.7215 14.3819 12.4467 14.2032 12.2867Z" fill="black"/>
<path d="M10 0C4.48609 0 0 4.48609 0 10C0 15.5139 4.48609 20 10 20C15.5139 20 20 15.5139 20 10C20 4.48609 15.5139 0 10 0ZM10 19.1304C4.96522 19.1304 0.869565 15.0348 0.869565 10C0.869565 4.96522 4.96522 0.869565 10 0.869565C15.0348 0.869565 19.1304 4.96522 19.1304 10C19.1304 15.0348 15.0348 19.1304 10 19.1304Z" fill="black"/>
<path d="M13.4786 6.95703C12.2799 6.95703 11.3047 7.93225 11.3047 9.13094C11.3047 9.37094 11.4995 9.56573 11.7395 9.56573C11.9795 9.56573 12.1743 9.37094 12.1743 9.13094C12.1743 8.41181 12.7595 7.8266 13.4786 7.8266C14.1977 7.8266 14.7829 8.41181 14.7829 9.13094C14.7829 9.37094 14.9777 9.56573 15.2177 9.56573C15.4577 9.56573 15.6525 9.37094 15.6525 9.13094C15.6525 7.93225 14.6773 6.95703 13.4786 6.95703Z" fill="black"/>
<path d="M7.82592 9.13094C7.82592 9.37094 8.0207 9.56573 8.2607 9.56573C8.5007 9.56573 8.69548 9.37094 8.69548 9.13094C8.69548 7.93225 7.72026 6.95703 6.52157 6.95703C5.32287 6.95703 4.34766 7.93225 4.34766 9.13094C4.34766 9.37094 4.54244 9.56573 4.78244 9.56573C5.02244 9.56573 5.21722 9.37094 5.21722 9.13094C5.21722 8.41181 5.80244 7.8266 6.52157 7.8266C7.2407 7.8266 7.82592 8.41181 7.82592 9.13094Z" fill="black"/>
</g>
<defs>
<clipPath id="clip0_1_4330">
<rect width="20" height="20" fill="white"/>
</clipPath>
</defs>
</svg>
