<svg width="54" height="54" viewBox="0 0 54 54" fill="none" xmlns="http://www.w3.org/2000/svg">
<g filter="url(#filter0_d_13_580)">
<circle cx="27" cy="23" r="23" fill="#F3F3F3"/>
</g>
<g clip-path="url(#clip0_13_580)">
<path d="M26.7846 22.4477C28.7824 22.4477 30.512 21.7312 31.9257 20.3175C33.3389 18.9041 34.0556 17.1747 34.0556 15.1767C34.0556 13.1795 33.3391 11.4498 31.9254 10.0359C30.5118 8.62275 28.7821 7.90625 26.7846 7.90625C24.7867 7.90625 23.0573 8.62275 21.6438 10.0362C20.2304 11.4496 19.5137 13.1792 19.5137 15.1767C19.5137 17.1747 20.2304 18.9043 21.6438 20.3178C23.0577 21.731 24.7874 22.4477 26.7846 22.4477ZM22.8949 11.287C23.9794 10.2025 25.2517 9.67528 26.7846 9.67528C28.3174 9.67528 29.5898 10.2025 30.6746 11.287C31.7591 12.3718 32.2866 13.6442 32.2866 15.1767C32.2866 16.7097 31.7591 17.9819 30.6746 19.0667C29.5898 20.1515 28.3174 20.6787 26.7846 20.6787C25.2521 20.6787 23.9799 20.1512 22.8949 19.0667C21.8101 17.9822 21.2827 16.7097 21.2827 15.1767C21.2827 13.6442 21.8101 12.3718 22.8949 11.287Z" fill="#7C7C7C"/>
<path d="M39.5074 31.0802C39.4666 30.4919 39.3841 29.8503 39.2628 29.1727C39.1402 28.4901 38.9825 27.8447 38.7936 27.2549C38.5983 26.6453 38.3332 26.0432 38.005 25.4663C37.6649 24.8675 37.265 24.3461 36.8164 23.917C36.3472 23.4681 35.7728 23.1072 35.1086 22.844C34.4467 22.5821 33.7132 22.4494 32.9285 22.4494C32.6203 22.4494 32.3223 22.5759 31.7468 22.9506C31.3925 23.1816 30.9782 23.4488 30.5157 23.7443C30.1203 23.9962 29.5846 24.2323 28.9229 24.446C28.2773 24.6549 27.6219 24.7609 26.9747 24.7609C26.328 24.7609 25.6725 24.6549 25.0265 24.446C24.3655 24.2325 23.8295 23.9965 23.4348 23.7445C22.9767 23.4518 22.5621 23.1846 22.2026 22.9504C21.6275 22.5757 21.3295 22.4492 21.0213 22.4492C20.2364 22.4492 19.5031 22.5821 18.8414 22.8442C18.1777 23.107 17.603 23.4679 17.1334 23.9172C16.6848 24.3465 16.285 24.8677 15.945 25.4663C15.6173 26.0432 15.352 26.645 15.1567 27.2551C14.968 27.845 14.8103 28.4901 14.6877 29.1727C14.5661 29.8494 14.4839 30.4913 14.4432 31.0808C14.4031 31.6573 14.3828 32.2573 14.3828 32.8635C14.3828 34.4393 14.8837 35.715 15.8716 36.6558C16.8472 37.5842 18.1378 38.0549 19.7079 38.0549H34.2433C35.8129 38.0549 37.1036 37.5842 38.0794 36.6558C39.0675 35.7156 39.5684 34.4395 39.5684 32.8632C39.5682 32.255 39.5477 31.655 39.5074 31.0802ZM36.8597 35.3741C36.215 35.9876 35.3592 36.2859 34.2431 36.2859H19.7079C18.5915 36.2859 17.7357 35.9876 17.0913 35.3743C16.4591 34.7725 16.1518 33.951 16.1518 32.8635C16.1518 32.2978 16.1705 31.7393 16.2078 31.2031C16.2442 30.6771 16.3186 30.0993 16.4289 29.4852C16.5378 28.8788 16.6765 28.3097 16.8414 27.7945C16.9996 27.3005 17.2154 26.8113 17.483 26.3401C17.7385 25.891 18.0323 25.5057 18.3566 25.1952C18.6599 24.9048 19.0423 24.6671 19.4928 24.4889C19.9094 24.324 20.3776 24.2337 20.8859 24.2201C20.9479 24.253 21.0582 24.3159 21.2369 24.4324C21.6006 24.6694 22.0197 24.9398 22.4831 25.2358C23.0055 25.5688 23.6784 25.8696 24.4825 26.1291C25.3045 26.3949 26.1428 26.5299 26.9749 26.5299C27.807 26.5299 28.6456 26.3949 29.4671 26.1294C30.2718 25.8694 30.9446 25.5688 31.4676 25.2353C31.9418 24.9322 32.3492 24.6697 32.7129 24.4324C32.8916 24.3161 33.002 24.253 33.0639 24.2201C33.5724 24.2337 34.0407 24.324 34.4575 24.4889C34.9078 24.6671 35.2901 24.905 35.5934 25.1952C35.9177 25.5055 36.2116 25.8908 36.467 26.3403C36.7349 26.8113 36.9509 27.3007 37.1089 27.7943C37.274 28.3102 37.4129 28.8791 37.5216 29.485C37.6317 30.1002 37.7063 30.6783 37.7427 31.2034V31.2038C37.7802 31.7379 37.7991 32.2962 37.7994 32.8635C37.7991 33.9512 37.4919 34.7725 36.8597 35.3741Z" fill="#7C7C7C"/>
</g>
<defs>
<filter id="filter0_d_13_580" x="0" y="0" width="54" height="54" filterUnits="userSpaceOnUse" color-interpolation-filters="sRGB">
<feFlood flood-opacity="0" result="BackgroundImageFix"/>
<feColorMatrix in="SourceAlpha" type="matrix" values="0 0 0 0 0 0 0 0 0 0 0 0 0 0 0 0 0 0 127 0" result="hardAlpha"/>
<feOffset dy="4"/>
<feGaussianBlur stdDeviation="2"/>
<feComposite in2="hardAlpha" operator="out"/>
<feColorMatrix type="matrix" values="0 0 0 0 0 0 0 0 0 0 0 0 0 0 0 0 0 0 0.25 0"/>
<feBlend mode="normal" in2="BackgroundImageFix" result="effect1_dropShadow_13_580"/>
<feBlend mode="normal" in="SourceGraphic" in2="effect1_dropShadow_13_580" result="shape"/>
</filter>
<clipPath id="clip0_13_580">
<rect width="30.1875" height="30.1875" fill="white" transform="translate(11.9062 7.90625)"/>
</clipPath>
</defs>
</svg>
