<svg width="42" height="42" viewBox="0 0 42 42" fill="none" xmlns="http://www.w3.org/2000/svg">
<g clip-path="url(#clip0_1203_1336)">
<path d="M39.6715 23.7851C39.2259 23.6991 38.7964 23.9906 38.7108 24.4353C37.0802 32.8978 29.6316 39.0398 21 39.0398C12.5502 39.0398 5.2343 33.1538 3.4 24.9671L3.6141 25.1812C3.77431 25.3414 3.98423 25.4215 4.19415 25.4215C4.40406 25.4215 4.61398 25.3414 4.77411 25.1812C5.09452 24.8609 5.09452 24.3416 4.77419 24.0212L3.08722 22.3341C2.93341 22.1802 2.72472 22.0938 2.50717 22.0938C2.28963 22.0938 2.08094 22.1802 1.92713 22.3341L0.240239 24.0212C-0.0800933 24.3415 -0.0800933 24.8608 0.240321 25.1812C0.560571 25.5017 1.08007 25.5016 1.40041 25.1812L1.70409 24.8775C3.53478 34.0425 11.6281 40.6804 21 40.6804C30.4166 40.6804 38.5426 33.9789 40.3218 24.7458C40.4075 24.301 40.1164 23.8708 39.6715 23.7851Z" fill="#7C7A7A"/>
<path d="M41.7605 16.8195C41.4403 16.499 40.9208 16.4991 40.6004 16.8195L40.2967 17.1232C38.4661 7.9582 30.3727 1.32031 21.0009 1.32031C11.5842 1.32031 3.45821 8.02177 1.67903 17.2549C1.59331 17.6998 1.88444 18.1299 2.3293 18.2156C2.77473 18.3012 3.20432 18.0101 3.29005 17.5654C4.92075 9.10295 12.3693 2.96094 21.0009 2.96094C29.4507 2.96094 36.7665 8.84693 38.6008 17.0336L38.3867 16.8195C38.0665 16.4992 37.5471 16.4991 37.2266 16.8195C36.9062 17.1398 36.9062 17.6591 37.2266 17.9795L38.9135 19.6666C39.0673 19.8205 39.2759 19.907 39.4935 19.907C39.711 19.907 39.9197 19.8205 40.0735 19.6666L41.7604 17.9795C42.081 17.6592 42.081 17.1398 41.7605 16.8195Z" fill="#7C7A7A"/>
<path d="M20.9993 34.8658C28.6453 34.8658 34.8658 28.6453 34.8658 20.9993C34.8658 13.3533 28.6453 7.13281 20.9993 7.13281C13.3533 7.13281 7.13281 13.3533 7.13281 20.9993C7.13281 28.6453 13.3533 34.8658 20.9993 34.8658ZM20.9993 8.77344C27.7407 8.77344 33.2252 14.2579 33.2252 20.9993C33.2252 27.7407 27.7407 33.2251 20.9993 33.2251C14.2579 33.2251 8.77344 27.7407 8.77344 20.9993C8.77344 14.2579 14.2579 8.77344 20.9993 8.77344Z" fill="#7C7A7A"/>
<path d="M21.8651 24.6186C21.9645 24.6582 22.067 24.6769 22.1679 24.6769C22.4941 24.6769 22.8025 24.481 22.9304 24.1595L25.2006 18.4518C25.368 18.0308 25.1625 17.5538 24.7416 17.3864C24.3208 17.219 23.8436 17.4244 23.6762 17.8455L21.4059 23.5532C21.2385 23.9742 21.4441 24.4512 21.8651 24.6186Z" fill="#7C7A7A"/>
<path d="M26.5019 18.9686H28.3853L26.3819 23.5259C26.1995 23.9407 26.3879 24.4246 26.8027 24.607C26.9101 24.6543 27.0221 24.6766 27.1324 24.6766C27.4479 24.6766 27.7487 24.4936 27.8838 24.1863L30.393 18.4785C30.5044 18.2248 30.4804 17.932 30.329 17.7001C30.1775 17.468 29.9191 17.3281 29.642 17.3281H26.502C26.049 17.3281 25.6816 17.6955 25.6816 18.1484C25.6816 18.6013 26.0488 18.9686 26.5019 18.9686Z" fill="#7C7A7A"/>
<path d="M16.0007 22.5893C16.1482 22.8393 16.4168 22.9926 16.707 22.9926H18.7355C18.7332 23.295 18.7308 23.5846 18.7285 23.8498C18.7247 24.3029 19.0888 24.6733 19.5418 24.6772H19.549C19.9987 24.6772 20.3652 24.3145 20.3691 23.8639C20.371 23.6493 20.3735 23.3446 20.3763 22.9883C20.7894 22.9457 21.1117 22.5966 21.1117 22.1723C21.1117 21.7516 20.7951 21.405 20.3872 21.3575C20.3946 20.0223 20.3974 18.678 20.3806 18.4767C20.3367 17.9492 20.0145 17.5174 19.5597 17.3765C19.1056 17.2361 18.6281 17.4056 18.2822 17.83C17.9573 18.2284 16.5702 20.7223 15.9888 21.776C15.8486 22.0302 15.8531 22.3394 16.0007 22.5893ZM18.7514 20.2065C18.7502 20.5608 18.7485 20.9507 18.7462 21.352H18.1023C18.3303 20.9459 18.5518 20.5545 18.7514 20.2065Z" fill="#7C7A7A"/>
<path d="M15.5055 24.7203C15.9584 24.7147 16.321 24.3427 16.3153 23.8898C16.3098 23.4403 15.9436 23.0798 15.4954 23.0798C15.4918 23.0798 15.4883 23.0798 15.4848 23.0799C15.0357 23.0854 14.5638 23.0896 14.1375 23.0917C14.4327 22.6921 14.8116 22.1685 15.2902 21.4846C15.6678 20.9452 15.9146 20.4323 16.0241 19.9604C16.051 19.8557 16.0733 19.7076 16.0735 19.5543C16.0753 18.2966 15.0503 17.2734 13.7926 17.2734C12.7052 17.2734 11.7641 18.0472 11.5546 19.1131C11.4673 19.5576 11.7568 19.9888 12.2014 20.0761C12.6463 20.1637 13.0772 19.8739 13.1645 19.4293C13.2231 19.1307 13.4873 18.9141 13.7926 18.9141C14.1317 18.9141 14.4099 19.179 14.4315 19.5126L14.4171 19.625C14.3682 19.8121 14.246 20.1153 13.9461 20.5438C13.044 21.8327 12.5059 22.5372 12.2168 22.9157C11.8461 23.4011 11.642 23.6684 11.7784 24.1124C11.8587 24.3733 12.0636 24.5815 12.3272 24.6695C12.4367 24.706 12.5244 24.7352 13.6447 24.7352C14.0845 24.7351 14.6835 24.7307 15.5055 24.7203Z" fill="#7C7A7A"/>
</g>
<defs>
<clipPath id="clip0_1203_1336">
<rect width="42" height="42" fill="white"/>
</clipPath>
</defs>
</svg>
