<svg width="37" height="37" viewBox="0 0 37 37" fill="none" xmlns="http://www.w3.org/2000/svg">
<g clip-path="url(#clip0_1203_1274)">
<path d="M17.4325 27.3791C17.1542 27.1749 16.7626 27.2345 16.5581 27.513L16.4808 27.6181C16.2765 27.8963 16.336 28.2874 16.6139 28.4921C16.7256 28.5744 16.8557 28.6141 16.9845 28.6141C17.1762 28.6141 17.3655 28.5263 17.4881 28.3602L17.5665 28.2536C17.7709 27.9752 17.7109 27.5836 17.4325 27.3791Z" fill="#8E8888"/>
<path d="M17.5961 33.3344L15.9873 30.4089L17.4894 28.3631C17.694 28.0847 17.6339 27.6931 17.3554 27.4886C17.077 27.284 16.6855 27.3441 16.481 27.6227L14.7424 29.9905C14.5983 30.1867 14.5812 30.4488 14.6985 30.6622L16.4999 33.9373V33.9372C16.6139 34.1443 16.8279 34.2614 17.0487 34.2614C17.1506 34.2614 17.254 34.2364 17.3496 34.1839C17.6522 34.0175 17.7626 33.6371 17.5961 33.3344Z" fill="#8E8888"/>
<path d="M22.2564 29.9885L20.5249 27.6303C20.3813 27.4348 20.138 27.3398 19.9 27.3869C19.662 27.4337 19.4726 27.6139 19.4138 27.8491C19.3686 28.0298 19.4063 28.221 19.5165 28.3711L21.0112 30.407L19.4133 33.3126C19.3626 33.4049 19.3359 33.5089 19.3359 33.6144C19.3359 33.8999 19.5293 34.1492 19.8059 34.2202C19.8577 34.2336 19.9099 34.24 19.9615 34.24C20.1855 34.24 20.3977 34.1192 20.5097 33.9159L22.3003 30.6603C22.4177 30.4468 22.4005 30.1848 22.2564 29.9885Z" fill="#8E8888"/>
<path d="M23.2512 20.1577C23.0454 20.0497 22.7967 20.0644 22.6053 20.1964C22.2332 20.4527 21.8879 20.7243 21.579 21.0034C19.8955 22.5254 18.2961 22.3194 18.2334 22.3104C18.1957 22.3045 18.1573 22.3018 18.1194 22.303C17.454 22.3201 16.2544 21.7121 14.9853 20.7154C14.7912 20.563 14.5922 20.4177 14.3935 20.2836C14.2018 20.1541 13.9542 20.141 13.75 20.2496C13.5457 20.3582 13.418 20.5706 13.418 20.802V22.9481C13.418 23.1378 13.5043 23.3172 13.6523 23.436C13.6698 23.4501 13.688 23.4631 13.7068 23.4751L18.1426 26.4391C18.1433 26.4396 18.1439 26.4402 18.1447 26.4407L18.1564 26.4485C18.2608 26.5176 18.3811 26.5525 18.5019 26.5525C18.6035 26.5525 18.7051 26.5278 18.7979 26.4782C18.8175 26.4677 18.8363 26.4562 18.8544 26.4439C18.8565 26.4425 18.8586 26.4412 18.8607 26.4397C18.8632 26.4381 18.8657 26.4365 18.8681 26.4348L23.2934 23.4778C23.3112 23.4665 23.3285 23.4543 23.3452 23.4413C23.497 23.3228 23.5858 23.1409 23.5858 22.9483V20.7116C23.5858 20.479 23.457 20.2659 23.2512 20.1577ZM22.3346 22.6135L18.5018 25.1746L14.6691 22.6134V22.0444C15.6023 22.7227 16.9752 23.5545 18.0942 23.5544C18.0965 23.5544 18.0991 23.5544 18.1015 23.5544C18.4772 23.596 20.3932 23.7089 22.3347 22.0058V22.6135H22.3346Z" fill="#8E8888"/>
<path d="M19.118 25.8274C19.0768 25.5793 18.8908 25.38 18.6461 25.3217C18.4013 25.2636 18.1456 25.3572 17.9968 25.56L16.5589 27.5185C16.3544 27.797 16.4144 28.1885 16.6929 28.3929C16.8045 28.4749 16.9341 28.5143 17.0627 28.5143C17.255 28.5143 17.4448 28.4258 17.5675 28.2588L18.9979 26.3107C19.0792 26.2043 19.1266 26.0719 19.1266 25.9304C19.1266 25.896 19.1237 25.8613 19.118 25.8274Z" fill="#8E8888"/>
<path d="M28.0304 5.65935C28.018 5.56136 27.7249 3.44643 25.7341 2.61212C25.792 2.24068 25.7859 1.76329 25.5501 1.29884C25.2331 0.674606 24.6077 0.267823 23.691 0.0896153C23.6517 0.0819551 23.6118 0.078125 23.5717 0.078125H15.1753C11.766 0.078125 8.99219 2.85183 8.99219 6.26133V9.55599C8.99219 10.4144 9.28479 11.2514 9.81594 11.9128C10.0793 12.2407 10.4036 12.8134 10.4525 13.6793C10.4716 14.0174 10.7546 14.2786 11.0948 14.2692C11.4333 14.2597 11.7027 13.9825 11.7027 13.6439V9.34845C12.1274 7.59174 13.5772 7.24985 13.8264 7.20367H16.5423C16.8618 7.20367 17.1759 7.15489 17.4762 7.05864C17.9926 6.893 18.8119 6.58818 19.4084 6.36163C19.8074 6.20995 20.2492 6.20438 20.6523 6.34602L23.5598 7.3667C25.0134 7.90292 25.2728 9.17899 25.305 9.37945V14.5347C25.305 14.8621 25.5574 15.1338 25.8839 15.1581C25.8998 15.1593 25.9154 15.1599 25.931 15.1599C26.2378 15.1598 26.5028 14.935 26.5492 14.627C26.5517 14.6108 26.8014 12.9974 27.6069 11.7055C27.8872 11.2558 28.0354 10.7431 28.0354 10.2228V5.73834C28.0354 5.71196 28.0337 5.68559 28.0304 5.65935ZM26.7842 10.2225C26.7842 10.502 26.7053 10.7792 26.556 11.0257V9.33667C26.556 9.31405 26.5548 9.29158 26.5523 9.2691C26.5425 9.17826 26.284 7.03443 23.987 6.19065C23.9842 6.18964 23.9814 6.18863 23.9786 6.18762L21.0666 5.16534C20.7383 5.05008 20.3949 4.99256 20.0516 4.99256C19.6825 4.99256 19.3135 5.05911 18.964 5.19208C18.1289 5.50933 17.4822 5.74282 17.094 5.86726C16.9175 5.92385 16.7319 5.95261 16.5422 5.95261H13.7758C13.749 5.95261 13.7221 5.95434 13.6955 5.95774C13.5896 5.97147 11.0945 6.32629 10.4666 9.14068C10.4566 9.18542 10.4515 9.23109 10.4515 9.2769V10.5644C10.3153 10.2496 10.2432 9.90576 10.2432 9.55607V6.26147C10.2432 3.54197 12.4557 1.32941 15.1752 1.32941H23.5085C23.8535 1.4029 24.2728 1.55372 24.4318 1.86056C24.6266 2.23612 24.4047 2.75326 24.4045 2.75369C24.3245 2.92388 24.3255 3.12095 24.4068 3.29041C24.4881 3.45987 24.6415 3.58374 24.8243 3.62775C26.4169 4.01112 26.7417 5.5386 26.7841 5.78567V10.2225H26.7842Z" fill="#8E8888"/>
<path d="M26.554 9.26869C26.5442 9.17785 26.2857 7.03401 23.9887 6.19024C23.9859 6.18923 23.9831 6.18822 23.9803 6.1872L21.0683 5.16493C20.3869 4.92573 19.6402 4.93527 18.9656 5.19153C18.1305 5.50877 17.4838 5.74226 17.0957 5.86678C16.9191 5.92336 16.7335 5.95205 16.5438 5.95205H13.7774C13.7506 5.95205 13.7237 5.95379 13.6971 5.95718C13.5912 5.97091 11.0961 6.32574 10.4682 9.14013C10.4582 9.18486 10.4531 9.23053 10.4531 9.27635V14.6541C10.4531 14.6587 10.4532 14.6633 10.4533 14.668C10.4574 14.8548 10.5896 19.2664 13.6377 21.284L13.6535 21.2951C13.6666 21.3043 13.6796 21.3136 13.6933 21.3228C13.8671 21.4401 14.0416 21.5675 14.2123 21.7015C15.1003 22.3988 16.7738 23.5566 18.0939 23.5566C18.0964 23.5566 18.0987 23.5566 18.1012 23.5566C18.1729 23.5644 18.3009 23.575 18.4745 23.575C19.2227 23.575 20.8189 23.3789 22.4177 21.9336C22.686 21.6912 22.9877 21.454 23.3148 21.2287L23.3615 21.1959C23.3768 21.1852 23.392 21.1743 23.4078 21.1638C24.4246 20.4809 26.1855 18.7187 26.5553 14.5899C26.5569 14.5714 26.5578 14.5527 26.5578 14.534V9.33626C26.5577 9.31371 26.5564 9.29123 26.554 9.26869ZM25.3065 14.5058C24.9656 18.232 23.378 19.6765 22.7101 20.125C22.6864 20.141 22.663 20.1575 22.6396 20.1739L22.6049 20.1984C22.2328 20.4547 21.8875 20.7263 21.5787 21.0054C19.9014 22.5217 18.3072 22.3228 18.229 22.3119C18.1927 22.3064 18.1558 22.3041 18.119 22.3051C17.4537 22.3222 16.254 21.7142 14.985 20.7175C14.7909 20.5651 14.5919 20.4198 14.3934 20.2859L14.378 20.2751C14.363 20.2644 14.348 20.2537 14.3304 20.242C11.8706 18.6139 11.7097 14.804 11.7043 14.645V9.34796C12.1306 7.58482 13.5892 7.24684 13.827 7.20319H16.5439C16.8634 7.20319 17.1775 7.15441 17.4778 7.05815C17.9942 6.89252 18.8136 6.5877 19.41 6.36115C19.809 6.20946 20.2509 6.2039 20.6539 6.34554L23.5614 7.36622C25.015 7.90243 25.2744 9.1785 25.3066 9.37896V14.5058H25.3065Z" fill="#8E8888"/>
<path d="M19.0587 25.6505C18.9612 25.4555 18.7693 25.3253 18.5521 25.3068C18.3353 25.2889 18.1239 25.3842 17.9949 25.56L16.4964 27.6009C16.2921 27.8793 16.3518 28.2705 16.6299 28.4751C16.7415 28.5572 16.8713 28.5969 17 28.5969C17.192 28.5969 17.3815 28.5088 17.5041 28.3424L19.0027 26.3089C19.082 26.2014 19.1247 26.064 19.1247 25.9304C19.1248 25.8334 19.102 25.7374 19.0587 25.6505Z" fill="#8E8888"/>
<path d="M19.0995 35.7167C18.8645 35.4709 18.4762 35.4578 18.2253 35.6874L18.0823 35.8182C17.8682 36.014 17.8168 36.3314 17.9583 36.5847L17.9627 36.5926C18.0583 36.7638 18.2287 36.8803 18.4228 36.9073C18.4516 36.9112 18.4804 36.9132 18.509 36.9132C18.6737 36.9132 18.8332 36.8481 18.9513 36.7299L19.0898 36.5913C19.3303 36.3508 19.3346 35.9623 19.0995 35.7167Z" fill="#8E8888"/>
<path d="M18.9174 35.8182L18.7743 35.6874C18.5234 35.4578 18.1351 35.4709 17.9001 35.7166C17.665 35.9625 17.6693 36.3511 17.9098 36.5914L18.0486 36.7301C18.1667 36.8482 18.3261 36.9133 18.4908 36.9133C18.5203 36.9133 18.5498 36.9113 18.5794 36.907C18.7742 36.8792 18.9446 36.7612 19.0393 36.5886L19.0438 36.5807C19.1824 36.3278 19.1302 36.0128 18.9174 35.8182Z" fill="#8E8888"/>
<path d="M18.9275 35.8335L18.9267 35.8328C18.8301 35.7424 18.7052 35.6829 18.5675 35.6678C18.3832 35.6477 18.2036 35.7101 18.073 35.8317L18.0711 35.8335C17.9447 35.9488 17.871 36.111 17.8673 36.2822C17.8636 36.4534 17.9303 36.6186 18.0516 36.7393L18.0582 36.7458C18.1802 36.8672 18.3397 36.9278 18.4993 36.9278C18.6594 36.9278 18.8195 36.8667 18.9416 36.7447L18.9481 36.7381C19.069 36.6172 19.1352 36.4522 19.1312 36.2814C19.1274 36.1105 19.0538 35.9487 18.9275 35.8335Z" fill="#8E8888"/>
<path d="M18.7031 25.3186C18.444 25.2356 18.1597 25.3318 18.0019 25.5537C17.8255 25.8021 17.8546 26.1407 18.0696 26.3567C18.1905 26.4782 18.3511 26.5405 18.5129 26.5405C18.6386 26.5405 18.7649 26.5029 18.8739 26.4262C19.0404 26.3091 19.1395 26.1183 19.1395 25.9146V25.9131C19.1395 25.6409 18.9624 25.4013 18.7031 25.3186Z" fill="#8E8888"/>
<path d="M19.0089 25.55L19.0036 25.5427C18.8431 25.3255 18.5612 25.2361 18.3048 25.3205C18.0483 25.405 17.875 25.6446 17.875 25.9146V25.9253C17.875 26.1556 18.0043 26.3656 18.2072 26.4745C18.2991 26.5239 18.4006 26.5483 18.5019 26.5483C18.6241 26.5483 18.7462 26.5128 18.8511 26.4433C18.9941 26.3487 19.092 26.1994 19.1219 26.0305C19.1517 25.8617 19.1109 25.6879 19.0089 25.55Z" fill="#8E8888"/>
<path d="M25.9424 23.5843C25.8776 23.4129 25.7409 23.2786 25.5685 23.2169L23.1699 22.3571C23.1505 22.3502 23.1303 22.344 23.1102 22.339C22.939 22.2962 22.7576 22.3276 22.6109 22.4258L18.1667 25.3954C18.1656 25.3962 18.1643 25.397 18.163 25.3979L18.512 25.9168L18.1552 25.4032C18.0249 25.4894 17.9315 25.6216 17.8936 25.7732C17.8728 25.8564 17.8694 25.9434 17.8835 26.028C17.8996 26.1247 17.9382 26.2163 17.9963 26.2954L21.2501 30.7269C21.3683 30.888 21.5559 30.9822 21.7542 30.9822C21.7678 30.9822 21.7815 30.9817 21.7951 30.9808C22.0082 30.9668 22.1995 30.8452 22.3024 30.658L25.9054 24.1072C25.9938 23.9467 26.0073 23.7554 25.9424 23.5843ZM21.6785 29.1963L19.3916 26.0817L23.0441 23.6411L24.4557 24.1471L21.6785 29.1963Z" fill="#8E8888"/>
<path d="M19.1182 25.8169C19.0888 25.649 18.9921 25.5003 18.8505 25.4053L14.3915 22.4257C14.2496 22.3307 14.0746 22.2982 13.9079 22.3352C13.8823 22.3409 13.8572 22.3482 13.8325 22.357L11.4339 23.2169C11.2615 23.2787 11.1249 23.4129 11.06 23.5842C10.9952 23.7555 11.0087 23.9466 11.097 24.1072L14.6999 30.6579C14.8028 30.8451 14.9941 30.9667 15.2072 30.9808C15.2208 30.9816 15.2345 30.9821 15.2481 30.9821C15.4464 30.9821 15.6339 30.8878 15.7523 30.7266L17.4909 28.3588C17.4923 28.357 17.4936 28.355 17.495 28.3531L19.0062 26.2949C19.107 26.1574 19.1475 25.9849 19.1182 25.8169ZM16.4825 27.6181C16.481 27.6201 16.4795 27.6221 16.478 27.6241L15.3237 29.1963L12.5465 24.147L13.9582 23.641L17.6106 26.0816L16.4825 27.6181Z" fill="#8E8888"/>
<path d="M36.9686 34.2629L36.1616 29.3898C35.9073 27.8541 34.84 26.571 33.3762 26.0416L25.569 23.217C25.3283 23.13 25.0592 23.1982 24.8891 23.3892C24.719 23.5802 24.6822 23.8555 24.7964 24.0845L26.4264 27.3534L24.827 27.378C24.6098 27.3814 24.4099 27.497 24.2989 27.6838C24.1879 27.8705 24.1817 28.1013 24.2825 28.2938L24.9385 29.5463L18.2248 35.688C18.2179 35.6943 18.2112 35.7006 18.2046 35.7072L18.066 35.8458C17.8697 36.0422 17.8262 36.3446 17.9596 36.5883L17.9645 36.5972C18.0743 36.7977 18.2847 36.9225 18.5133 36.9225H34.7132C35.3862 36.9225 36.0218 36.6282 36.4569 36.1149C36.892 35.6017 37.0786 34.9266 36.9686 34.2629ZM35.5028 35.3058C35.3057 35.5382 35.0179 35.6714 34.7133 35.6714H20.0964L26.1386 30.1443C26.3482 29.9527 26.4024 29.644 26.2706 29.3925L25.8624 28.6132L27.4397 28.589C27.6547 28.5857 27.8528 28.4722 27.9646 28.2886C28.0762 28.1048 28.0858 27.8767 27.9899 27.6843L26.6142 24.9255L32.9509 27.2179C33.9897 27.5937 34.7471 28.5043 34.9276 29.5941L35.7346 34.4672C35.7346 34.4673 35.7346 34.4673 35.7346 34.4673C35.7843 34.7678 35.6999 35.0734 35.5028 35.3058Z" fill="#8E8888"/>
<path d="M18.9342 35.8324L18.9269 35.8258C18.6793 35.6017 18.299 35.6116 18.0634 35.8485L18.0569 35.8551C17.8788 36.0343 17.826 36.3031 17.923 36.5364C18.02 36.7698 18.2479 36.9217 18.5006 36.9217H18.5143C18.7729 36.9217 19.005 36.7625 19.0979 36.5212C19.1911 36.2797 19.126 36.006 18.9342 35.8324Z" fill="#8E8888"/>
<path d="M18.9156 35.8168C18.7736 35.689 18.581 35.633 18.3924 35.6651C18.204 35.697 18.0405 35.8134 17.9486 35.981L17.9443 35.9888C17.8124 36.2293 17.8525 36.5276 18.0432 36.7247L18.0455 36.727C18.168 36.8537 18.3313 36.9176 18.4951 36.9176C18.6458 36.9176 18.7969 36.8634 18.9165 36.7541L18.9231 36.7481C18.9799 36.6964 19.0267 36.6344 19.0611 36.5656C19.1871 36.3139 19.1248 36.005 18.9156 35.8168Z" fill="#8E8888"/>
<path d="M18.941 35.8535L18.9384 35.8508C18.9368 35.8491 18.935 35.8474 18.9334 35.8458L18.7947 35.7072C18.7882 35.7006 18.7815 35.6942 18.7747 35.6881L12.061 29.5464L12.7171 28.2938C12.8179 28.1015 12.8116 27.8706 12.7007 27.6838C12.5897 27.4972 12.3898 27.3815 12.1726 27.3781L10.573 27.3534L12.203 24.0846C12.3172 23.8556 12.2804 23.5802 12.1103 23.3892C11.9403 23.1982 11.6709 23.1299 11.4304 23.2171L3.62335 26.0417C2.15953 26.571 1.09217 27.8541 0.837864 29.3899L0.030872 34.263C-0.0790443 34.927 0.107546 35.6019 0.54273 36.1151C0.977987 36.6282 1.61356 36.9226 2.28636 36.9226H18.5001C18.7534 36.9226 18.9817 36.7697 19.0783 36.5356C19.1749 36.3015 19.1207 36.0321 18.941 35.8535ZM2.28643 35.6715C1.98176 35.6715 1.694 35.5383 1.497 35.3059C1.3 35.0735 1.2156 34.7679 1.26532 34.4673L2.07231 29.5942C2.25276 28.5042 3.01017 27.5938 4.04899 27.218L10.3856 24.9255L9.00997 27.6842C8.914 27.8766 8.92354 28.1047 9.03533 28.2885C9.14698 28.4722 9.34521 28.5856 9.5602 28.5889L11.1375 28.6132L10.7293 29.3925C10.5976 29.644 10.6518 29.9527 10.8612 30.1443L16.9034 35.6715H2.28643Z" fill="#8E8888"/>
<path d="M20.6294 28.1521C20.6746 27.9714 20.6369 27.7801 20.5267 27.63L19.0044 25.5568C18.8444 25.3389 18.5622 25.2522 18.3054 25.3365C18.1667 25.3819 18.0525 25.4737 17.9764 25.591L16.4819 27.6188C16.4605 27.6477 16.4415 27.6788 16.4254 27.711C16.323 27.9159 16.3407 28.1603 16.4715 28.3483L17.108 29.2622L16.43 33.5358C16.4082 33.673 16.4328 33.8135 16.4997 33.9353L17.9521 36.576C18.062 36.7759 18.2722 36.9001 18.5002 36.9001C18.7284 36.9001 18.9384 36.7759 19.0484 36.576L20.5116 33.9157C20.5623 33.8234 20.589 33.7197 20.589 33.6143V33.6139C20.589 33.5811 20.5863 33.5483 20.5813 33.5159L19.9064 29.2623L20.536 28.3584C20.5792 28.2958 20.611 28.2258 20.6294 28.1521ZM18.5002 34.9765L17.6992 33.5201L18.3831 29.2095C18.4085 29.0498 18.3709 28.8867 18.2786 28.7541L17.7544 28.0012L18.502 26.9867L19.2536 28.0103L18.7357 28.7541C18.6433 28.8866 18.6059 29.0498 18.6312 29.2095L19.312 33.5005L18.5002 34.9765Z" fill="#8E8888"/>
</g>
<defs>
<clipPath id="clip0_1203_1274">
<rect width="37" height="37" fill="white"/>
</clipPath>
</defs>
</svg>
